<svg width="1440" height="144" viewBox="0 0 1440 144" fill="none" xmlns="http://www.w3.org/2000/svg">
<mask id="mask0_2864_17289" style="mask-type:alpha" maskUnits="userSpaceOnUse" x="0" y="0" width="1440" height="144">
<rect width="1440" height="144" fill="#D9D9D9"/>
</mask>
<g mask="url(#mask0_2864_17289)">
<path fill-rule="evenodd" clip-rule="evenodd" d="M988.396 64.428C975.012 26.8782 939.145 0 897 0C847.536 0 806.719 37.0247 800.751 84.8723C792.995 80.4968 784.039 78 774.5 78C745.026 78 721.119 101.834 721 131.279C719.192 131.095 717.357 131 715.5 131C702.964 131 691.435 135.312 682.315 142.533C668.855 127.477 649.284 118 627.5 118C615.139 118 603.491 121.051 593.268 126.442C578.65 83.1609 537.714 52 489.5 52C448.457 52 412.687 74.5815 393.938 107.999C380.682 95.0088 362.526 87 342.5 87C326.937 87 312.503 91.8372 300.621 100.09C289.119 65.1907 256.251 40 217.5 40C195.901 40 176.13 47.8259 160.868 60.7969C143.052 32.1047 111.257 13 75 13C45.2388 13 18.4844 25.8721 0 46.3525V151V181.647V343H1440V181.647V151V46.3525C1421.52 25.8721 1394.76 13 1365 13C1329.43 13 1298.16 31.3855 1280.16 59.1716C1265.19 47.175 1246.18 40 1225.5 40C1186.75 40 1153.88 65.1909 1142.38 100.09C1130.5 91.8372 1116.06 87 1100.5 87C1093.11 87 1085.98 88.0901 1079.25 90.1179C1066.02 70.7283 1043.75 58 1018.5 58C1007.77 58 997.583 60.2979 988.396 64.428Z" fill="#FEF9C2"/>
</g>
</svg>
